<svg width="16" height="16" viewBox="0 0 16 16" fill="none" xmlns="http://www.w3.org/2000/svg">
<path d="M3.73255 2.13281C3.43762 2.13281 3.19922 2.37175 3.19922 2.66615C3.19922 2.96055 3.43762 3.19948 3.73255 3.19948H4.26589V12.7995H3.73255C3.43762 12.7995 3.19922 13.0384 3.19922 13.3328C3.19922 13.6272 3.43762 13.8661 3.73255 13.8661H9.86589C11.7774 13.8661 13.3326 12.3109 13.3326 10.3995C13.3326 8.99628 12.4935 7.7883 11.2919 7.24323C11.8887 6.70563 12.2659 5.93015 12.2659 5.06615C12.2659 3.44855 10.9496 2.13281 9.33255 2.13281H3.73255ZM6.93255 3.19948H8.26589C9.29522 3.19948 10.1326 4.03681 10.1326 5.06615C10.1326 6.09548 9.29522 6.93281 8.26589 6.93281H6.93255V3.19948ZM6.93255 7.99948H7.73255H8.26589C9.58909 7.99948 10.6659 9.07628 10.6659 10.3995C10.6659 11.7227 9.58909 12.7995 8.26589 12.7995H6.93255V7.99948Z" fill="#505C57"/>
</svg>
