<svg width="16" height="16" viewBox="0 0 16 16" fill="none" xmlns="http://www.w3.org/2000/svg">
<path d="M3.19948 2.66602C2.91658 2.66602 2.64527 2.7784 2.44523 2.97844C2.24519 3.17847 2.13281 3.44978 2.13281 3.73268C2.13281 4.01558 2.24519 4.28689 2.44523 4.48693C2.64527 4.68697 2.91658 4.79935 3.19948 4.79935C3.48238 4.79935 3.75369 4.68697 3.95373 4.48693C4.15377 4.28689 4.26615 4.01558 4.26615 3.73268C4.26615 3.44978 4.15377 3.17847 3.95373 2.97844C3.75369 2.7784 3.48238 2.66602 3.19948 2.66602ZM6.39948 3.19935C6.32881 3.19835 6.25864 3.21141 6.19306 3.23776C6.12747 3.26411 6.06778 3.30324 6.01745 3.35286C5.96712 3.40249 5.92716 3.46162 5.89988 3.52682C5.8726 3.59203 5.85855 3.662 5.85855 3.73268C5.85855 3.80336 5.8726 3.87334 5.89988 3.93854C5.92716 4.00375 5.96712 4.06288 6.01745 4.1125C6.06778 4.16212 6.12747 4.20125 6.19306 4.2276C6.25864 4.25396 6.32881 4.26702 6.39948 4.26602H13.3328C13.4035 4.26702 13.4737 4.25396 13.5392 4.2276C13.6048 4.20125 13.6645 4.16212 13.7148 4.1125C13.7652 4.06288 13.8051 4.00375 13.8324 3.93854C13.8597 3.87334 13.8737 3.80336 13.8737 3.73268C13.8737 3.662 13.8597 3.59203 13.8324 3.52682C13.8051 3.46162 13.7652 3.40249 13.7148 3.35286C13.6645 3.30324 13.6048 3.26411 13.5392 3.23776C13.4737 3.21141 13.4035 3.19835 13.3328 3.19935H6.39948ZM3.19948 6.93268C2.91658 6.93268 2.64527 7.04506 2.44523 7.2451C2.24519 7.44514 2.13281 7.71645 2.13281 7.99935C2.13281 8.28225 2.24519 8.55356 2.44523 8.7536C2.64527 8.95364 2.91658 9.06602 3.19948 9.06602C3.48238 9.06602 3.75369 8.95364 3.95373 8.7536C4.15377 8.55356 4.26615 8.28225 4.26615 7.99935C4.26615 7.71645 4.15377 7.44514 3.95373 7.2451C3.75369 7.04506 3.48238 6.93268 3.19948 6.93268ZM6.39948 7.46602C6.32881 7.46502 6.25864 7.47807 6.19306 7.50443C6.12747 7.53078 6.06778 7.56991 6.01745 7.61953C5.96712 7.66915 5.92716 7.72829 5.89988 7.79349C5.8726 7.85869 5.85855 7.92867 5.85855 7.99935C5.85855 8.07003 5.8726 8.14 5.89988 8.20521C5.92716 8.27041 5.96712 8.32954 6.01745 8.37917C6.06778 8.42879 6.12747 8.46792 6.19306 8.49427C6.25864 8.52063 6.32881 8.53368 6.39948 8.53268H13.3328C13.4035 8.53368 13.4737 8.52063 13.5392 8.49427C13.6048 8.46792 13.6645 8.42879 13.7148 8.37917C13.7652 8.32954 13.8051 8.27041 13.8324 8.20521C13.8597 8.14 13.8737 8.07003 13.8737 7.99935C13.8737 7.92867 13.8597 7.85869 13.8324 7.79349C13.8051 7.72829 13.7652 7.66915 13.7148 7.61953C13.6645 7.56991 13.6048 7.53078 13.5392 7.50443C13.4737 7.47807 13.4035 7.46502 13.3328 7.46602H6.39948ZM3.19948 11.1993C2.91658 11.1993 2.64527 11.3117 2.44523 11.5118C2.24519 11.7118 2.13281 11.9831 2.13281 12.266C2.13281 12.5489 2.24519 12.8202 2.44523 13.0203C2.64527 13.2203 2.91658 13.3327 3.19948 13.3327C3.48238 13.3327 3.75369 13.2203 3.95373 13.0203C4.15377 12.8202 4.26615 12.5489 4.26615 12.266C4.26615 11.9831 4.15377 11.7118 3.95373 11.5118C3.75369 11.3117 3.48238 11.1993 3.19948 11.1993ZM6.39948 11.7327C6.32881 11.7317 6.25864 11.7447 6.19306 11.7711C6.12747 11.7974 6.06778 11.8366 6.01745 11.8862C5.96712 11.9358 5.92716 11.995 5.89988 12.0602C5.8726 12.1254 5.85855 12.1953 5.85855 12.266C5.85855 12.3367 5.8726 12.4067 5.89988 12.4719C5.92716 12.5371 5.96712 12.5962 6.01745 12.6458C6.06778 12.6955 6.12747 12.7346 6.19306 12.7609C6.25864 12.7873 6.32881 12.8003 6.39948 12.7993H13.3328C13.4035 12.8003 13.4737 12.7873 13.5392 12.7609C13.6048 12.7346 13.6645 12.6955 13.7148 12.6458C13.7652 12.5962 13.8051 12.5371 13.8324 12.4719C13.8597 12.4067 13.8737 12.3367 13.8737 12.266C13.8737 12.1953 13.8597 12.1254 13.8324 12.0602C13.8051 11.995 13.7652 11.9358 13.7148 11.8862C13.6645 11.8366 13.6048 11.7974 13.5392 11.7711C13.4737 11.7447 13.4035 11.7317 13.3328 11.7327H6.39948Z" fill="#505C57"/>
</svg>
