<svg width="16" height="16" viewBox="0 0 16 16" fill="none" xmlns="http://www.w3.org/2000/svg">
<path d="M4.25226 2.11919C4.20128 2.12041 4.15045 2.12528 4.10017 2.13377H2.66788C2.59721 2.13277 2.52704 2.14583 2.46146 2.17219C2.39588 2.19854 2.33619 2.23767 2.28585 2.28729C2.23552 2.33691 2.19556 2.39604 2.16828 2.46125C2.141 2.52645 2.12695 2.59643 2.12695 2.66711C2.12695 2.73779 2.141 2.80776 2.16828 2.87297C2.19556 2.93817 2.23552 2.9973 2.28585 3.04693C2.33619 3.09655 2.39588 3.13568 2.46146 3.16203C2.52704 3.18838 2.59721 3.20144 2.66788 3.20044H3.20122V12.8004H2.66788C2.59721 12.7994 2.52704 12.8125 2.46146 12.8389C2.39588 12.8652 2.33619 12.9043 2.28585 12.954C2.23552 13.0036 2.19556 13.0627 2.16828 13.1279C2.141 13.1931 2.12695 13.2631 2.12695 13.3338C2.12695 13.4045 2.141 13.4744 2.16828 13.5396C2.19556 13.6048 2.23552 13.664 2.28585 13.7136C2.33619 13.7632 2.39588 13.8023 2.46146 13.8287C2.52704 13.855 2.59721 13.8681 2.66788 13.8671H4.09497C4.20948 13.8859 4.32629 13.8859 4.4408 13.8671H5.86788C5.93856 13.8681 6.00872 13.855 6.0743 13.8287C6.13989 13.8023 6.19958 13.7632 6.24991 13.7136C6.30024 13.664 6.34021 13.6048 6.36748 13.5396C6.39476 13.4744 6.40881 13.4045 6.40881 13.3338C6.40881 13.2631 6.39476 13.1931 6.36748 13.1279C6.34021 13.0627 6.30024 13.0036 6.24991 12.954C6.19958 12.9043 6.13989 12.8652 6.0743 12.8389C6.00872 12.8125 5.93856 12.7994 5.86788 12.8004H5.33455V8.53377H10.6679V12.8004H10.1345C10.0639 12.7994 9.99371 12.8125 9.92813 12.8389C9.86254 12.8652 9.80285 12.9043 9.75252 12.954C9.70219 13.0036 9.66222 13.0627 9.63495 13.1279C9.60767 13.1931 9.59362 13.2631 9.59362 13.3338C9.59362 13.4045 9.60767 13.4744 9.63495 13.5396C9.66222 13.6048 9.70219 13.664 9.75252 13.7136C9.80285 13.7632 9.86254 13.8023 9.92813 13.8287C9.99371 13.855 10.0639 13.8681 10.1345 13.8671H11.5616C11.6761 13.8859 11.793 13.8859 11.9075 13.8671H13.3345C13.4052 13.8681 13.4754 13.855 13.541 13.8287C13.6066 13.8023 13.6662 13.7632 13.7166 13.7136C13.7669 13.664 13.8069 13.6048 13.8342 13.5396C13.8614 13.4744 13.8755 13.4045 13.8755 13.3338C13.8755 13.2631 13.8614 13.1931 13.8342 13.1279C13.8069 13.0627 13.7669 13.0036 13.7166 12.954C13.6662 12.9043 13.6066 12.8652 13.541 12.8389C13.4754 12.8125 13.4052 12.7994 13.3345 12.8004H12.8012V3.20044H13.3345C13.4052 3.20144 13.4754 3.18838 13.541 3.16203C13.6066 3.13568 13.6662 3.09655 13.7166 3.04693C13.7669 2.9973 13.8069 2.93817 13.8342 2.87297C13.8614 2.80776 13.8755 2.73779 13.8755 2.66711C13.8755 2.59643 13.8614 2.52645 13.8342 2.46125C13.8069 2.39604 13.7669 2.33691 13.7166 2.28729C13.6662 2.23767 13.6066 2.19854 13.541 2.17219C13.4754 2.14583 13.4052 2.13277 13.3345 2.13377H11.9054C11.8438 2.12346 11.7814 2.11858 11.7189 2.11919C11.6679 2.12041 11.6171 2.12528 11.5668 2.13377H10.1345C10.0639 2.13277 9.99371 2.14583 9.92813 2.17219C9.86254 2.19854 9.80285 2.23767 9.75252 2.28729C9.70219 2.33691 9.66222 2.39604 9.63495 2.46125C9.60767 2.52645 9.59362 2.59643 9.59362 2.66711C9.59362 2.73779 9.60767 2.80776 9.63495 2.87297C9.66222 2.93817 9.70219 2.9973 9.75252 3.04693C9.80285 3.09655 9.86254 3.13568 9.92813 3.16203C9.99371 3.18838 10.0639 3.20144 10.1345 3.20044H10.6679V7.46711H5.33455V3.20044H5.86788C5.93856 3.20144 6.00872 3.18838 6.0743 3.16203C6.13989 3.13568 6.19958 3.09655 6.24991 3.04693C6.30024 2.9973 6.34021 2.93817 6.36748 2.87297C6.39476 2.80776 6.40881 2.73779 6.40881 2.66711C6.40881 2.59643 6.39476 2.52645 6.36748 2.46125C6.34021 2.39604 6.30024 2.33691 6.24991 2.28729C6.19958 2.23767 6.13989 2.19854 6.0743 2.17219C6.00872 2.14583 5.93856 2.13277 5.86788 2.13377H4.43872C4.37711 2.12346 4.31472 2.11858 4.25226 2.11919Z" fill="#505C57"/>
</svg>
