<svg width="16" height="16" viewBox="0 0 16 16" fill="none" xmlns="http://www.w3.org/2000/svg">
<path d="M8.52648 2.1211C8.48631 2.1219 8.44627 2.12573 8.40668 2.13256H6.93377C6.86309 2.13156 6.79293 2.14461 6.72734 2.17097C6.66176 2.19732 6.60207 2.23645 6.55174 2.28607C6.50141 2.33569 6.46144 2.39483 6.43416 2.46003C6.40689 2.52523 6.39284 2.59521 6.39284 2.66589C6.39284 2.73657 6.40689 2.80654 6.43416 2.87175C6.46144 2.93695 6.50141 2.99608 6.55174 3.04571C6.60207 3.09533 6.66176 3.13446 6.72734 3.16081C6.79293 3.18717 6.86309 3.20022 6.93377 3.19922H7.70148L6.69106 12.7992H5.8671C5.79643 12.7982 5.72626 12.8113 5.66068 12.8376C5.5951 12.864 5.5354 12.9031 5.48507 12.9527C5.43474 13.0024 5.39478 13.0615 5.3675 13.1267C5.34022 13.1919 5.32617 13.2619 5.32617 13.3326C5.32617 13.4032 5.34022 13.4732 5.3675 13.5384C5.39478 13.6036 5.43474 13.6628 5.48507 13.7124C5.5354 13.762 5.5951 13.8011 5.66068 13.8275C5.72626 13.8538 5.79643 13.8669 5.8671 13.8659H9.0671C9.13777 13.8669 9.20794 13.8538 9.27352 13.8275C9.33911 13.8011 9.3988 13.762 9.44913 13.7124C9.49946 13.6628 9.53943 13.6036 9.5667 13.5384C9.59398 13.4732 9.60803 13.4032 9.60803 13.3326C9.60803 13.2619 9.59398 13.1919 9.5667 13.1267C9.53943 13.0615 9.49946 13.0024 9.44913 12.9527C9.3988 12.9031 9.33911 12.864 9.27352 12.8376C9.20794 12.8113 9.13777 12.7982 9.0671 12.7992H8.29939L9.30981 3.19922H10.1338C10.2044 3.20022 10.2746 3.18717 10.3402 3.16081C10.4058 3.13446 10.4655 3.09533 10.5158 3.04571C10.5661 2.99608 10.6061 2.93695 10.6334 2.87175C10.6607 2.80654 10.6747 2.73657 10.6747 2.66589C10.6747 2.59521 10.6607 2.52523 10.6334 2.46003C10.6061 2.39483 10.5661 2.33569 10.5158 2.28607C10.4655 2.23645 10.4058 2.19732 10.3402 2.17097C10.2746 2.14461 10.2044 2.13156 10.1338 2.13256H8.66398C8.61856 2.12478 8.57255 2.12095 8.52648 2.1211Z" fill="#505C57"/>
</svg>
