<svg width="16" height="16" viewBox="0 0 16 16" fill="none" xmlns="http://www.w3.org/2000/svg">
<path d="M2.92018 1.62109L2.1056 2.17526V2.8763L2.87747 2.35547H2.92018V4.82109H3.73372V1.62109H2.92018ZM5.86706 3.19922C5.79638 3.19822 5.72622 3.21128 5.66063 3.23763C5.59505 3.26398 5.53536 3.30311 5.48503 3.35273C5.4347 3.40236 5.39473 3.46149 5.36745 3.52669C5.34018 3.5919 5.32613 3.66187 5.32613 3.73255C5.32613 3.80323 5.34018 3.87321 5.36745 3.93841C5.39473 4.00362 5.4347 4.06275 5.48503 4.11237C5.53536 4.16199 5.59505 4.20112 5.66063 4.22747C5.72622 4.25383 5.79638 4.26689 5.86706 4.26589H13.3337C13.4044 4.26689 13.4746 4.25383 13.5401 4.22747C13.6057 4.20112 13.6654 4.16199 13.7158 4.11237C13.7661 4.06275 13.806 4.00362 13.8333 3.93841C13.8606 3.87321 13.8747 3.80323 13.8747 3.73255C13.8747 3.66187 13.8606 3.5919 13.8333 3.52669C13.806 3.46149 13.7661 3.40236 13.7158 3.35273C13.6654 3.30311 13.6057 3.26398 13.5401 3.23763C13.4746 3.21128 13.4044 3.19822 13.3337 3.19922H5.86706ZM3.20039 6.39922C2.47719 6.39922 1.9931 6.81803 1.9931 7.43776V7.45026H2.71914V7.43568C2.71914 7.17861 2.90453 6.99714 3.17227 6.99714C3.42933 6.99714 3.59727 7.15063 3.59727 7.37943C3.59727 7.56289 3.48091 7.72054 3.02331 8.14401L2.03893 9.07005V9.59922H4.40768V8.98255H3.09414V8.94089L3.60872 8.46797C4.16126 7.9757 4.36393 7.66878 4.36393 7.32318C4.36393 6.77224 3.89799 6.39922 3.20039 6.39922ZM5.86706 7.46589C5.79638 7.46489 5.72622 7.47794 5.66063 7.5043C5.59505 7.53065 5.53536 7.56978 5.48503 7.6194C5.4347 7.66902 5.39473 7.72816 5.36745 7.79336C5.34018 7.85856 5.32613 7.92854 5.32613 7.99922C5.32613 8.0699 5.34018 8.13987 5.36745 8.20508C5.39473 8.27028 5.4347 8.32941 5.48503 8.37904C5.53536 8.42866 5.59505 8.46779 5.66063 8.49414C5.72622 8.5205 5.79638 8.53355 5.86706 8.53255H13.3337C13.4044 8.53355 13.4746 8.5205 13.5401 8.49414C13.6057 8.46779 13.6654 8.42866 13.7158 8.37904C13.7661 8.32941 13.806 8.27028 13.8333 8.20508C13.8606 8.13987 13.8747 8.0699 13.8747 7.99922C13.8747 7.92854 13.8606 7.85856 13.8333 7.79336C13.806 7.72816 13.7661 7.66902 13.7158 7.6194C13.6654 7.56978 13.6057 7.53065 13.5401 7.5043C13.4746 7.47794 13.4044 7.46489 13.3337 7.46589H5.86706ZM3.18997 10.6659C2.48544 10.6659 2.03085 11.0442 2.02018 11.6378H2.72018C2.72872 11.3999 2.9072 11.2419 3.17227 11.2419C3.4416 11.2419 3.60872 11.3795 3.60872 11.6003C3.60872 11.8211 3.43822 11.9659 3.17956 11.9659H2.80664V12.4982H3.17956C3.47449 12.4982 3.65247 12.6417 3.65247 12.8753C3.65247 13.1025 3.46357 13.2576 3.18997 13.2576C2.89771 13.2576 2.71002 13.1151 2.69935 12.8836H1.96289C1.99009 13.4788 2.46763 13.8659 3.17643 13.8659C3.91937 13.8659 4.43685 13.4829 4.43685 12.9336C4.43685 12.5427 4.1701 12.2674 3.75143 12.2232V12.1826C4.09223 12.1196 4.32539 11.8444 4.32539 11.4951C4.32539 11.0049 3.86304 10.6659 3.18997 10.6659ZM5.86706 11.7326C5.79638 11.7316 5.72622 11.7446 5.66063 11.771C5.59505 11.7973 5.53536 11.8364 5.48503 11.8861C5.4347 11.9357 5.39473 11.9948 5.36745 12.06C5.34018 12.1252 5.32613 12.1952 5.32613 12.2659C5.32613 12.3366 5.34018 12.4065 5.36745 12.4717C5.39473 12.5369 5.4347 12.5961 5.48503 12.6457C5.53536 12.6953 5.59505 12.7345 5.66063 12.7608C5.72622 12.7872 5.79638 12.8002 5.86706 12.7992H13.3337C13.4044 12.8002 13.4746 12.7872 13.5401 12.7608C13.6057 12.7345 13.6654 12.6953 13.7158 12.6457C13.7661 12.5961 13.806 12.5369 13.8333 12.4717C13.8606 12.4065 13.8747 12.3366 13.8747 12.2659C13.8747 12.1952 13.8606 12.1252 13.8333 12.06C13.806 11.9948 13.7661 11.9357 13.7158 11.8861C13.6654 11.8364 13.6057 11.7973 13.5401 11.771C13.4746 11.7446 13.4044 11.7316 13.3337 11.7326H5.86706Z" fill="#505C57"/>
</svg>
