<svg width="12" height="12" viewBox="0 0 12 12" fill="none" xmlns="http://www.w3.org/2000/svg">
<path d="M5.98913 1.18954C5.77709 1.19265 5.57496 1.2798 5.42715 1.43186C5.27934 1.58392 5.19795 1.78844 5.20085 2.00048V5.20048H2.00085C1.89484 5.19898 1.78959 5.21856 1.69121 5.25809C1.59284 5.29762 1.5033 5.35631 1.42781 5.43075C1.35231 5.50518 1.29236 5.59388 1.25144 5.69169C1.21052 5.78949 1.18945 5.89446 1.18945 6.00048C1.18945 6.1065 1.21052 6.21146 1.25144 6.30927C1.29236 6.40707 1.35231 6.49577 1.42781 6.5702C1.5033 6.64464 1.59284 6.70333 1.69121 6.74286C1.78959 6.78239 1.89484 6.80198 2.00085 6.80048H5.20085V10.0005C5.19935 10.1065 5.21893 10.2117 5.25846 10.3101C5.298 10.4085 5.35668 10.498 5.43112 10.5735C5.50555 10.649 5.59425 10.709 5.69206 10.7499C5.78986 10.7908 5.89483 10.8119 6.00085 10.8119C6.10687 10.8119 6.21183 10.7908 6.30964 10.7499C6.40744 10.709 6.49614 10.649 6.57058 10.5735C6.64501 10.498 6.7037 10.4085 6.74323 10.3101C6.78276 10.2117 6.80235 10.1065 6.80085 10.0005V6.80048H10.0008C10.1069 6.80198 10.2121 6.78239 10.3105 6.74286C10.4089 6.70333 10.4984 6.64464 10.5739 6.5702C10.6494 6.49577 10.7093 6.40707 10.7503 6.30927C10.7912 6.21146 10.8122 6.1065 10.8122 6.00048C10.8122 5.89446 10.7912 5.78949 10.7503 5.69169C10.7093 5.59388 10.6494 5.50518 10.5739 5.43075C10.4984 5.35631 10.4089 5.29762 10.3105 5.25809C10.2121 5.21856 10.1069 5.19898 10.0008 5.20048H6.80085V2.00048C6.80231 1.89351 6.78231 1.78734 6.74202 1.68824C6.70174 1.58914 6.64199 1.49912 6.56631 1.42352C6.49063 1.34791 6.40056 1.28825 6.30142 1.24806C6.20228 1.20787 6.09609 1.18797 5.98913 1.18954Z" fill="#151E1A"/>
</svg>
