<svg width="16" height="16" viewBox="0 0 16 16" fill="none" xmlns="http://www.w3.org/2000/svg">
<path d="M3.1994 2.13281C3.05796 2.13283 2.92231 2.18902 2.82229 2.28904C2.72228 2.38905 2.66608 2.5247 2.66607 2.66615V3.73281C2.66507 3.80349 2.67813 3.87365 2.70448 3.93924C2.73083 4.00482 2.76996 4.06451 2.81958 4.11484C2.86921 4.16517 2.92834 4.20514 2.99354 4.23242C3.05875 4.25969 3.12872 4.27374 3.1994 4.27374C3.27008 4.27374 3.34006 4.25969 3.40526 4.23242C3.47047 4.20514 3.5296 4.16517 3.57922 4.11484C3.62884 4.06451 3.66797 4.00482 3.69432 3.93924C3.72068 3.87365 3.73374 3.80349 3.73274 3.73281V3.19948H6.93274V7.99948H3.73274C3.66206 7.99848 3.5919 8.01154 3.52631 8.03789C3.46073 8.06424 3.40104 8.10337 3.35071 8.15299C3.30038 8.20262 3.26041 8.26175 3.23313 8.32695C3.20585 8.39216 3.19181 8.46213 3.19181 8.53281C3.19181 8.60349 3.20585 8.67347 3.23313 8.73867C3.26041 8.80388 3.30038 8.86301 3.35071 8.91263C3.40104 8.96225 3.46073 9.00138 3.52631 9.02773C3.5919 9.05409 3.66206 9.06714 3.73274 9.06615H12.2661C12.3367 9.06714 12.4069 9.05409 12.4725 9.02773C12.5381 9.00138 12.5978 8.96225 12.6481 8.91263C12.6984 8.86301 12.7384 8.80388 12.7657 8.73867C12.793 8.67347 12.807 8.60349 12.807 8.53281C12.807 8.46213 12.793 8.39216 12.7657 8.32695C12.7384 8.26175 12.6984 8.20262 12.6481 8.15299C12.5978 8.10337 12.5381 8.06424 12.4725 8.03789C12.4069 8.01154 12.3367 7.99848 12.2661 7.99948H9.06607V3.19948H12.2661V3.73281C12.2651 3.80349 12.2781 3.87365 12.3045 3.93924C12.3308 4.00482 12.37 4.06451 12.4196 4.11484C12.4692 4.16517 12.5283 4.20514 12.5935 4.23242C12.6587 4.25969 12.7287 4.27374 12.7994 4.27374C12.8701 4.27374 12.9401 4.25969 13.0053 4.23242C13.0705 4.20514 13.1296 4.16517 13.1792 4.11484C13.2288 4.06451 13.268 4.00482 13.2943 3.93924C13.3207 3.87365 13.3337 3.80349 13.3327 3.73281V2.66615C13.3327 2.5247 13.2765 2.38905 13.1765 2.28904C13.0765 2.18902 12.9408 2.13283 12.7994 2.13281H3.1994ZM6.93274 10.1328V12.7995H6.3994C6.32873 12.7985 6.25856 12.8115 6.19298 12.8379C6.1274 12.8642 6.06771 12.9034 6.01737 12.953C5.96704 13.0026 5.92708 13.0617 5.8998 13.127C5.87252 13.1922 5.85847 13.2621 5.85847 13.3328C5.85847 13.4035 5.87252 13.4735 5.8998 13.5387C5.92708 13.6039 5.96704 13.663 6.01737 13.7126C6.06771 13.7623 6.1274 13.8014 6.19298 13.8277C6.25856 13.8541 6.32873 13.8671 6.3994 13.8661H9.5994C9.67008 13.8671 9.74024 13.8541 9.80583 13.8277C9.87141 13.8014 9.9311 13.7623 9.98143 13.7126C10.0318 13.663 10.0717 13.6039 10.099 13.5387C10.1263 13.4735 10.1403 13.4035 10.1403 13.3328C10.1403 13.2621 10.1263 13.1922 10.099 13.127C10.0717 13.0617 10.0318 13.0026 9.98143 12.953C9.9311 12.9034 9.87141 12.8642 9.80583 12.8379C9.74024 12.8115 9.67008 12.7985 9.5994 12.7995H9.06607V10.1328H6.93274Z" fill="#505C57"/>
</svg>
