<svg width="16" height="16" viewBox="0 0 16 16" fill="none" xmlns="http://www.w3.org/2000/svg">
<path d="M3.73429 2.13287C3.66362 2.13187 3.59345 2.14492 3.52787 2.17128C3.46228 2.19763 3.40259 2.23676 3.35226 2.28638C3.30193 2.336 3.26196 2.39514 3.23469 2.46034C3.20741 2.52554 3.19336 2.59552 3.19336 2.6662C3.19336 2.73688 3.20741 2.80685 3.23469 2.87206C3.26196 2.93726 3.30193 2.99639 3.35226 3.04602C3.40259 3.09564 3.46228 3.13477 3.52787 3.16112C3.59345 3.18748 3.66362 3.20053 3.73429 3.19953V7.99953C3.73429 10.2235 5.55242 12.2662 8.00095 12.2662C10.4495 12.2662 12.2676 10.2235 12.2676 7.99953V3.19953C12.3383 3.20053 12.4085 3.18748 12.474 3.16112C12.5396 3.13477 12.5993 3.09564 12.6496 3.04602C12.7 2.99639 12.7399 2.93726 12.7672 2.87206C12.7945 2.80685 12.8086 2.73688 12.8086 2.6662C12.8086 2.59552 12.7945 2.52554 12.7672 2.46034C12.7399 2.39514 12.7 2.336 12.6496 2.28638C12.5993 2.23676 12.5396 2.19763 12.474 2.17128C12.4085 2.14492 12.3383 2.13187 12.2676 2.13287H10.1343C10.0636 2.13187 9.99345 2.14492 9.92787 2.17128C9.86228 2.19763 9.80259 2.23676 9.75226 2.28638C9.70193 2.336 9.66196 2.39514 9.63468 2.46034C9.60741 2.52554 9.59336 2.59552 9.59336 2.6662C9.59336 2.73688 9.60741 2.80685 9.63468 2.87206C9.66196 2.93726 9.70193 2.99639 9.75226 3.04602C9.80259 3.09564 9.86228 3.13477 9.92787 3.16112C9.99345 3.18748 10.0636 3.20053 10.1343 3.19953V8.97141C10.1343 10.085 9.32276 11.0814 8.2145 11.1891C6.9425 11.3134 5.86762 10.3131 5.86762 9.0662V3.19953C5.93829 3.20053 6.00846 3.18748 6.07404 3.16112C6.13963 3.13477 6.19932 3.09564 6.24965 3.04602C6.29998 2.99639 6.33995 2.93726 6.36722 2.87206C6.3945 2.80685 6.40855 2.73688 6.40855 2.6662C6.40855 2.59552 6.3945 2.52554 6.36722 2.46034C6.33995 2.39514 6.29998 2.336 6.24965 2.28638C6.19932 2.23676 6.13963 2.19763 6.07404 2.17128C6.00846 2.14492 5.93829 2.13187 5.86762 2.13287H3.73429ZM3.73429 13.3329C3.66362 13.3319 3.59345 13.3449 3.52787 13.3713C3.46228 13.3976 3.40259 13.4368 3.35226 13.4864C3.30193 13.536 3.26196 13.5951 3.23469 13.6603C3.20741 13.7255 3.19336 13.7955 3.19336 13.8662C3.19336 13.9369 3.20741 14.0069 3.23469 14.0721C3.26196 14.1373 3.30193 14.1964 3.35226 14.246C3.40259 14.2956 3.46228 14.3348 3.52787 14.3611C3.59345 14.3875 3.66362 14.4005 3.73429 14.3995H12.2676C12.3383 14.4005 12.4085 14.3875 12.474 14.3611C12.5396 14.3348 12.5993 14.2956 12.6496 14.246C12.7 14.1964 12.7399 14.1373 12.7672 14.0721C12.7945 14.0069 12.8086 13.9369 12.8086 13.8662C12.8086 13.7955 12.7945 13.7255 12.7672 13.6603C12.7399 13.5951 12.7 13.536 12.6496 13.4864C12.5993 13.4368 12.5396 13.3976 12.474 13.3713C12.4085 13.3449 12.3383 13.3319 12.2676 13.3329H3.73429Z" fill="#505C57"/>
</svg>
